<svg width="19" height="20" viewBox="0 0 19 20" fill="none" xmlns="http://www.w3.org/2000/svg">
<path d="M16 9.77344L16.0302 7.37137C16.0759 3.74146 13.1461 0.774288 9.51592 0.773984C5.91737 0.773682 3 3.6908 3 7.28936V9.77344" stroke="#00B7DC" stroke-width="1.55511"/>
<path d="M2 9.55859H17C17.6751 9.55859 18.2227 10.1061 18.2227 10.7812V17.7734C18.2227 18.4486 17.6751 18.9961 17 18.9961H2C1.32486 18.9961 0.777344 18.4486 0.777344 17.7734V10.7812C0.777344 10.1061 1.32486 9.55859 2 9.55859Z" stroke="#00B7DC" stroke-width="1.55511"/>
<path d="M9.5 12.7734C9.84983 12.7734 9.99985 13.0184 10 13.1621C10 13.2324 9.97363 13.312 9.9082 13.3838L9.8291 13.4521C9.66579 13.5658 9.56512 13.7056 9.5 13.8262C9.43488 13.7056 9.33421 13.5658 9.1709 13.4521C9.04699 13.3659 9 13.2558 9 13.1621C9.00015 13.0184 9.15017 12.7734 9.5 12.7734Z" stroke="#00B7DC" stroke-width="2"/>
</svg>
