<svg width="55" height="64" viewBox="0 0 55 64" fill="none" xmlns="http://www.w3.org/2000/svg">
<path d="M27.2615 1.03961L10.9901 1.03907C10.8975 1.03906 10.807 1.06647 10.7299 1.11783L1.20883 7.46523C1.07836 7.55221 1 7.69863 1 7.85542V17.3358V31.8494C1 33.0273 1.22187 34.1946 1.65402 35.2904L1.79135 35.6386C5.53802 45.1388 12.2834 53.1563 21.0027 58.4729L26.6803 61.9349C26.7537 61.9797 26.8381 62.0034 26.9241 62.0034L27.2615 62.0036V1.03961Z" fill="#00B7DC"/>
<path d="M27.0007 0.711488L43.4449 0.710942C43.5385 0.710938 43.6299 0.738635 43.7078 0.790539L53.33 7.20532C53.4618 7.29322 53.541 7.4412 53.541 7.59966V17.1807V31.8484C53.541 33.0387 53.3168 34.2185 52.8801 35.3259L52.7413 35.6778C48.9548 45.2788 42.1378 53.3814 33.326 58.7545L27.5881 62.2532C27.5139 62.2985 27.4286 62.3224 27.3417 62.3225L27.0007 62.3227V0.711488Z" fill="#009EBE"/>
<path d="M16.9707 26.3463L25.0096 34.4984C25.1005 34.5905 25.2524 34.5784 25.3275 34.473L37.7923 16.9766" stroke="white" stroke-width="3.12324" stroke-linecap="round"/>
<path d="M26.9502 62.0352L21.2031 58.5312C12.3737 53.1474 5.5421 45.0285 1.74805 35.4082L1.62793 35.1016C1.2133 34.0502 1.00004 32.93 1 31.7998V7.8584C1.00012 7.52419 1.16722 7.21176 1.44531 7.02637L10.2334 1.16797C10.3977 1.05846 10.5907 1.00001 10.7881 1L27.1533 1.00098H43.5195C43.7168 1.00106 43.9101 1.05953 44.0742 1.16895L52.8623 7.02637C53.1403 7.21176 53.3075 7.52424 53.3076 7.8584V31.7998C53.3076 32.93 53.0943 34.0502 52.6797 35.1016L52.5586 35.4082C48.7647 45.0281 41.9345 53.1474 33.1055 58.5312L27.3584 62.0352H26.9502Z" stroke="white" stroke-width="2"/>
</svg>
