<svg width="79" height="43" viewBox="0 0 79 43" fill="none" xmlns="http://www.w3.org/2000/svg">
<rect width="78.4407" height="42.1957" rx="7.74678" fill="#009EBE"/>
<mask id="mask0_2340_1610" style="mask-type:alpha" maskUnits="userSpaceOnUse" x="0" y="0" width="79" height="43">
<rect width="78.4407" height="42.1957" rx="7.74678" fill="#00B7DC"/>
</mask>
<g mask="url(#mask0_2340_1610)">
<path d="M50.6592 11.4382C64.9583 26.5544 103.634 19.2006 121.338 8.16985L116.026 -4.9036L17.1585 -22.0625L-13.4824 25.7373C0.680482 22.3328 36.5897 -3.43522 50.6592 11.4382Z" fill="#00B7DC"/>
</g>
<rect x="4.08594" y="5.71875" width="22.8785" height="8.988" rx="1.1476" fill="white"/>
<rect x="4.08594" y="22.875" width="16.3418" height="4.90254" rx="1.1476" fill="white"/>
<rect x="22.0605" y="22.875" width="16.3418" height="4.90254" rx="1.1476" fill="white"/>
<rect x="40.0391" y="22.875" width="16.3418" height="4.90254" rx="1.1476" fill="white"/>
<rect x="58.0137" y="22.875" width="16.3418" height="4.90254" rx="1.1476" fill="white"/>
<path d="M45.7559 35.1328L74.354 35.1328" stroke="white" stroke-width="0.520008" stroke-dasharray="3.44 3.44"/>
</svg>
