<svg width="41" height="52" viewBox="0 0 41 52" fill="none" xmlns="http://www.w3.org/2000/svg">
<path d="M36 24L36 16.5014C36 7.94154 29.0613 1.00218 20.5014 1.0014C11.9404 1.00063 5 7.94044 5 16.5014V24" stroke="#00B7DC" stroke-width="2"/>
<path d="M6.24805 24.3203H34.752C37.6503 24.3203 40 26.67 40 29.5684V45.458C40 48.3563 37.6503 50.7061 34.752 50.7061H6.24805C3.34972 50.7061 1 48.3563 1 45.458V29.5684L1.00684 29.2979C1.14754 26.5252 3.44039 24.3203 6.24805 24.3203Z" stroke="#00B7DC" stroke-width="2"/>
<ellipse cx="20.5" cy="33.5" rx="4.5" ry="3.5" fill="#00B7DC"/>
<path d="M18 34H23V40.5C23 41.8807 21.8807 43 20.5 43C19.1193 43 18 41.8807 18 40.5V34Z" fill="#00B7DC"/>
</svg>
