<svg width="50" height="50" viewBox="0 0 50 50" fill="none" xmlns="http://www.w3.org/2000/svg">
<circle cx="25" cy="25" r="25" fill="#387E1A"/>
<path d="M26.0801 12C29.5795 12.5132 36.8626 15.5854 37.9999 23.768" stroke="white" stroke-width="1.5" stroke-linecap="round"/>
<path d="M25.8613 16.7266C28.0849 17.0565 32.6414 18.9702 33.0788 23.9853" stroke="white" stroke-width="1.5" stroke-linecap="round"/>
<path d="M15.3634 14.8612C17.2005 12.7496 19.0815 14.6413 20.0657 15.7411L21.5967 17.3908C23.1276 19.0406 22.0341 19.7004 20.8312 21.0202C19.6282 22.34 19.7376 22.23 20.2844 23.7697C20.8312 25.3095 24.6586 28.6089 26.4083 29.8187C28.158 31.0285 28.2674 29.7087 29.689 28.3889C30.8263 27.3331 32.0583 27.949 32.5322 28.3889C32.7874 28.7189 33.6258 29.6647 34.938 30.8085C36.2503 31.9523 35.8493 33.3381 35.4848 33.888L35.4803 33.8948C35.3971 34.0206 35.3916 34.0288 33.8445 35.7577C31.8761 37.9573 28.4861 36.6375 27.5019 36.3076C26.5177 35.9776 16.5663 30.2586 14.2698 23.7697C11.9733 17.2809 13.0669 17.5008 15.3634 14.8612Z" fill="#387E1A" stroke="white" stroke-width="1.5" stroke-linecap="round"/>
</svg>
