<svg width="50" height="50" viewBox="0 0 50 50" fill="none" xmlns="http://www.w3.org/2000/svg">
<path d="M25 50C38.8071 50 50 38.8071 50 25C50 11.1929 38.8071 0 25 0C11.1929 0 0 11.1929 0 25C0 38.8071 11.1929 50 25 50Z" fill="#039BE5"/>
<path d="M11.4394 24.4622L35.5436 15.1684C36.6623 14.7643 37.6394 15.4414 37.2769 17.133L37.279 17.1309L33.1748 36.4664C32.8706 37.8372 32.0561 38.1705 30.9165 37.5247L24.6665 32.9184L21.6519 35.8226C21.3186 36.1559 21.0373 36.4372 20.3915 36.4372L20.8352 30.0768L32.4186 19.6122C32.9227 19.1684 32.3061 18.9184 31.6415 19.3601L17.3269 28.3726L11.1561 26.4476C9.81648 26.0226 9.78731 25.108 11.4394 24.4622Z" fill="white"/>
</svg>
