<svg width="50" height="50" viewBox="0 0 50 50" fill="none" xmlns="http://www.w3.org/2000/svg">
<path d="M25 50C38.8071 50 50 38.8071 50 25C50 11.1929 38.8071 0 25 0C11.1929 0 0 11.1929 0 25C0 38.8071 11.1929 50 25 50Z" fill="#4065D6"/>
<path d="M36.5293 32.1436C35.9438 32.2259 33.0984 32.1436 32.9504 32.1436C32.2147 32.1511 31.5057 31.8687 30.9767 31.3575C30.3747 30.7785 29.8319 30.1404 29.2563 29.5384C29.0815 29.3549 28.8935 29.1845 28.6938 29.0285C28.2234 28.67 27.7596 28.7522 27.5392 29.3048C27.3666 29.9038 27.2477 30.517 27.1839 31.1371C27.1736 31.3983 27.0602 31.6447 26.8684 31.8223C26.6766 32 26.4221 32.0942 26.1609 32.0844C25.7727 32.1042 25.3846 32.114 24.9997 32.1042C23.5997 32.0969 22.2212 31.7588 20.9767 31.1173C19.6332 30.3666 18.4621 29.3423 17.5392 28.1107C16.0625 26.1608 14.7863 24.0669 13.73 21.8607C13.6741 21.7489 12.5655 19.3904 12.5392 19.2818C12.4705 19.1272 12.4639 18.9522 12.5209 18.7929C12.5778 18.6336 12.6939 18.5024 12.8451 18.4265C13.0425 18.3509 16.6971 18.4265 16.7563 18.4265C17.0284 18.4239 17.2943 18.5084 17.515 18.6676C17.7357 18.8268 17.8998 19.0524 17.9833 19.3114C18.6592 21.0345 19.5822 22.6502 20.7234 24.1075C20.8826 24.3039 21.0699 24.4757 21.2793 24.6173C21.3333 24.6694 21.4002 24.7062 21.4731 24.7237C21.546 24.7413 21.6223 24.7391 21.6941 24.7173C21.7659 24.6955 21.8305 24.6549 21.8814 24.5997C21.9322 24.5446 21.9674 24.4768 21.9833 24.4035C22.1278 23.9279 22.2129 23.4362 22.2365 22.9397C22.2563 21.9528 22.2365 21.295 22.1806 20.3081C22.2005 19.9718 22.087 19.6412 21.8647 19.3881C21.6423 19.135 21.3292 18.9798 20.9931 18.9561C20.7037 18.9068 20.6642 18.67 20.8648 18.4331C21.2497 17.943 21.7826 17.864 22.3616 17.8344C23.2366 17.7851 24.1148 17.8344 24.9931 17.8344H25.1839C25.5695 17.8335 25.9542 17.872 26.3319 17.9496C26.5528 17.9948 26.7532 18.1102 26.9031 18.2785C27.0531 18.4469 27.1447 18.6592 27.1642 18.8838C27.2085 19.1323 27.2283 19.3846 27.2234 19.6371C27.2004 20.7127 27.1477 21.7884 27.1346 22.8673C27.1267 23.2935 27.1653 23.7193 27.2497 24.1371C27.378 24.7094 27.7694 24.8542 28.1708 24.4364C28.6709 23.8996 29.1294 23.3256 29.5425 22.7193C30.2852 21.6153 30.8968 20.4286 31.3648 19.1831C31.6181 18.545 31.8122 18.4035 32.4997 18.4035H36.378C36.6094 18.3997 36.8401 18.4307 37.0622 18.4956C37.1406 18.5165 37.2139 18.5533 37.2775 18.6037C37.3411 18.6541 37.3936 18.7171 37.4319 18.7886C37.4701 18.8602 37.4932 18.9389 37.4998 19.0197C37.5064 19.1006 37.4963 19.182 37.4701 19.2588C37.2433 20.084 36.8542 20.8556 36.3254 21.5285C35.5359 22.6436 34.7069 23.7325 33.8977 24.818C33.7953 24.96 33.7019 25.1083 33.6181 25.2621C33.3155 25.8081 33.3385 26.1173 33.776 26.5779C34.48 27.3015 35.2333 27.9825 35.9109 28.7259C36.4106 29.2676 36.8619 29.8521 37.2596 30.4726C37.7596 31.2752 37.4537 32.0121 36.5293 32.1436Z" fill="white"/>
</svg>
